<?xml version="1.0" encoding="utf-8"?>
<!-- Generator: Adobe Illustrator 27.3.1, SVG Export Plug-In . SVG Version: 6.00 Build 0)  -->
<svg version="1.1" id="Layer_1" xmlns="http://www.w3.org/2000/svg" xmlns:xlink="http://www.w3.org/1999/xlink" x="0px" y="0px"
	 viewBox="0 0 996.08 566.78" style="enable-background:new 0 0 996.08 566.78;" xml:space="preserve">
<style type="text/css">
	.st0{fill:url(#SVGID_1_);}
	.st1{fill:url(#SVGID_00000030455001996012496570000012070725934051654538_);}
	.st2{fill:url(#SVGID_00000183951666602874899590000007323148506189669540_);}
	.st3{fill:#100D22;}
	.st4{fill:#FFFFFF;}
	.st5{fill:url(#SVGID_00000136377967250553230210000015979313108514224022_);}
	.st6{fill:url(#SVGID_00000079467320834122115940000001111182447427562687_);}
	.st7{fill:url(#SVGID_00000088828844324096813990000018114506225806973626_);}
	.st8{fill:url(#SVGID_00000062159091272725092570000002730003242001627529_);}
	.st9{fill:url(#SVGID_00000013163477858810763340000000585125477707243678_);}
	.st10{fill:url(#SVGID_00000130627028634950782740000010045234685603701144_);}
	.st11{fill:url(#SVGID_00000166653655224902045310000007420967247013826967_);}
	.st12{fill:url(#SVGID_00000066491290719325798320000010664382172522153913_);}
	.st13{fill:url(#SVGID_00000181803232922817883460000007224994518771110832_);}
	.st14{fill:url(#SVGID_00000125571474220778106650000018157183826521259434_);}
	.st15{fill:url(#SVGID_00000139270016091042583050000003125963082990639268_);}
	.st16{fill:url(#SVGID_00000138572919974141489210000012672416273242579082_);}
	.st17{fill:url(#SVGID_00000088099352401110038860000008644935129395686023_);}
	.st18{fill:url(#SVGID_00000033347785126934797280000001362602123095238587_);}
	.st19{fill:url(#SVGID_00000088817389068706085370000017819837192620756892_);}
	.st20{fill:url(#SVGID_00000020373771998087555810000004902480047098508456_);}
	.st21{fill:url(#SVGID_00000005268632888909062880000004510081464012569984_);}
	.st22{fill:url(#SVGID_00000066499946097001450170000009080683622210108860_);}
	.st23{fill:url(#SVGID_00000114056668570336998690000010713869094714478468_);}
	.st24{fill:url(#SVGID_00000010286565517702695040000003466182733754205111_);}
	.st25{fill:url(#SVGID_00000142156451833777517210000011829887010405326476_);}
	.st26{fill:url(#SVGID_00000146479757485735437260000006060380935215944877_);}
	.st27{fill:url(#SVGID_00000115501330797324203580000002730653544788233375_);}
	.st28{fill:url(#SVGID_00000055672050316028995270000002413078995950411447_);}
	.st29{fill:url(#SVGID_00000118395832238831793560000007076042090788297621_);}
	.st30{fill:url(#SVGID_00000022554845674971667750000000649331083288499103_);}
	.st31{fill:url(#SVGID_00000036232148261140771670000004464679264493876385_);}
	.st32{fill:url(#SVGID_00000023974216423639075760000002615524446510562233_);}
	.st33{fill:url(#SVGID_00000150814516681093371790000004601132865894404532_);}
	.st34{fill:url(#SVGID_00000117643265840353247160000016914977957457470373_);}
	.st35{fill:url(#SVGID_00000023276755599493703020000005114710560531295675_);}
	.st36{fill:url(#SVGID_00000065073397837798695920000014183972487258187664_);}
	.st37{fill:url(#SVGID_00000090985978339525759290000004737769679425896328_);}
	.st38{fill:url(#SVGID_00000044140965848675147430000008723993037806304680_);}
	.st39{fill:url(#SVGID_00000174560222475668032900000011555223256495410623_);}
	.st40{fill:url(#SVGID_00000065785859641960210250000010501122673504607880_);}
	.st41{fill:url(#SVGID_00000178187844587013317810000001045191841868597939_);}
	.st42{fill:url(#SVGID_00000031182322130254893430000001582924305966308518_);}
	.st43{fill:url(#SVGID_00000108288074593799517590000000705598068192977796_);}
	.st44{fill:url(#SVGID_00000170274665938674235180000015833651838854916279_);}
</style>
<linearGradient id="SVGID_1_" gradientUnits="userSpaceOnUse" x1="-1.818989e-12" y1="283.3891" x2="996.0798" y2="283.3891">
	<stop  offset="0" style="stop-color:#9E85F9"/>
	<stop  offset="1" style="stop-color:#D6CEFF"/>
</linearGradient>
<rect x="0" class="st0" width="996.08" height="566.78"/>
<g>
	<g>
		<g>
			<g>
				<path class="st3" d="M183.34,226.05c4.97,0,9.44,0.68,13.41,2.04c3.96,1.36,7.34,3.31,10.14,5.83c2.8,2.52,4.95,5.58,6.47,9.15
					c1.52,3.58,2.27,7.58,2.27,12.01c0,4.35-0.74,8.28-2.22,11.78c-1.48,3.5-3.61,6.47-6.41,8.92c-2.8,2.45-6.2,4.33-10.2,5.65
					c-4,1.32-8.49,1.98-13.47,1.98h-14.57v20.75h-17.95v-78.11H183.34z M182.17,266.97c4.66,0,8.26-1.01,10.78-3.03
					c2.52-2.02,3.79-4.89,3.79-8.63c0-3.73-1.26-6.63-3.79-8.69c-2.53-2.06-6.12-3.09-10.78-3.09h-13.41v23.43H182.17z"/>
				<path class="st3" d="M264.71,226.05c10.26,0,18.21,2.23,23.84,6.7c5.63,4.47,8.45,10.82,8.45,19.06
					c0,5.99-1.48,10.96-4.43,14.92c-2.96,3.97-7.11,6.88-12.48,8.74l17.14,28.68h-21.1l-15.39-26.35h-11.07v26.35h-17.95v-78.11
					H264.71z M264.24,263.71c4.43,0,7.85-0.91,10.26-2.74c2.41-1.83,3.61-4.33,3.61-7.52c0-3.19-1.21-5.69-3.61-7.52
					c-2.41-1.83-5.83-2.74-10.26-2.74h-14.57v20.52H264.24z"/>
				<path class="st3" d="M310.99,265.1c0-5.52,1.07-10.73,3.21-15.62c2.14-4.9,5.03-9.17,8.68-12.82c3.65-3.65,7.95-6.53,12.88-8.63
					c4.93-2.1,10.2-3.15,15.8-3.15c5.59,0,10.86,1.05,15.79,3.15c4.94,2.1,9.25,4.97,12.94,8.63c3.69,3.65,6.59,7.93,8.68,12.82
					c2.1,4.9,3.15,10.1,3.15,15.62c0,5.6-1.05,10.82-3.15,15.68c-2.1,4.86-4.99,9.11-8.68,12.77c-3.69,3.65-8.01,6.53-12.94,8.63
					c-4.94,2.1-10.2,3.15-15.79,3.15c-5.6,0-10.86-1.05-15.8-3.15c-4.94-2.1-9.23-4.97-12.88-8.63c-3.65-3.65-6.55-7.91-8.68-12.77
					C312.06,275.93,310.99,270.7,310.99,265.1z M329.88,264.99c0,3.11,0.56,6.02,1.69,8.74c1.13,2.72,2.68,5.09,4.66,7.11
					c1.98,2.02,4.27,3.61,6.88,4.78c2.6,1.17,5.42,1.75,8.45,1.75c3.03,0,5.85-0.58,8.45-1.75c2.6-1.17,4.9-2.76,6.88-4.78
					c1.98-2.02,3.54-4.39,4.66-7.11c1.13-2.72,1.69-5.64,1.69-8.74c0-3.03-0.56-5.89-1.69-8.57c-1.13-2.68-2.68-5.03-4.66-7.05
					c-1.98-2.02-4.3-3.61-6.94-4.78c-2.64-1.17-5.44-1.75-8.39-1.75c-2.96,0-5.75,0.58-8.39,1.75c-2.64,1.17-4.95,2.76-6.94,4.78
					c-1.98,2.02-3.54,4.37-4.66,7.05C330.44,259.1,329.88,261.96,329.88,264.99z"/>
				<path class="st3" d="M409.03,304.16v-78.11h31.59c5.75,0,11.05,0.97,15.91,2.92c4.86,1.94,9.03,4.64,12.53,8.1
					c3.5,3.46,6.22,7.58,8.16,12.36c1.94,4.78,2.91,10.01,2.91,15.68c0,5.67-0.97,10.92-2.91,15.74c-1.94,4.82-4.66,8.94-8.16,12.36
					c-3.5,3.42-7.68,6.1-12.53,8.04c-4.86,1.94-10.16,2.91-15.91,2.91H409.03z M426.99,286.67h13.64c3.03,0,5.83-0.52,8.39-1.57
					c2.56-1.05,4.74-2.51,6.53-4.37c1.79-1.87,3.19-4.12,4.2-6.76c1.01-2.64,1.52-5.59,1.52-8.86c0-3.26-0.51-6.22-1.52-8.86
					c-1.01-2.64-2.41-4.9-4.2-6.76c-1.79-1.87-3.96-3.32-6.53-4.37c-2.57-1.05-5.36-1.57-8.39-1.57h-13.64V286.67z"/>
				<path class="st4" d="M497.05,226.05h56.66v15.62H515v17.25h31.83v15.39H515v29.84h-17.95V226.05z"/>
				<path class="st4" d="M564.55,265.1c0-5.52,1.07-10.73,3.21-15.62c2.14-4.9,5.03-9.17,8.68-12.82c3.65-3.65,7.95-6.53,12.88-8.63
					c4.93-2.1,10.2-3.15,15.8-3.15c5.59,0,10.86,1.05,15.79,3.15c4.94,2.1,9.25,4.97,12.94,8.63c3.69,3.65,6.59,7.93,8.68,12.82
					c2.1,4.9,3.15,10.1,3.15,15.62c0,5.6-1.05,10.82-3.15,15.68c-2.1,4.86-4.99,9.11-8.68,12.77c-3.69,3.65-8.01,6.53-12.94,8.63
					c-4.94,2.1-10.2,3.15-15.79,3.15c-5.6,0-10.86-1.05-15.8-3.15c-4.94-2.1-9.23-4.97-12.88-8.63c-3.65-3.65-6.55-7.91-8.68-12.77
					C565.62,275.93,564.55,270.7,564.55,265.1z M583.43,264.99c0,3.11,0.56,6.02,1.69,8.74c1.13,2.72,2.68,5.09,4.66,7.11
					c1.98,2.02,4.27,3.61,6.88,4.78c2.6,1.17,5.42,1.75,8.45,1.75c3.03,0,5.85-0.58,8.45-1.75c2.6-1.17,4.9-2.76,6.88-4.78
					c1.98-2.02,3.54-4.39,4.66-7.11c1.13-2.72,1.69-5.64,1.69-8.74c0-3.03-0.56-5.89-1.69-8.57c-1.13-2.68-2.68-5.03-4.66-7.05
					c-1.98-2.02-4.3-3.61-6.94-4.78c-2.64-1.17-5.44-1.75-8.39-1.75c-2.96,0-5.75,0.58-8.39,1.75c-2.64,1.17-4.95,2.76-6.94,4.78
					c-1.98,2.02-3.54,4.37-4.66,7.05C584,259.1,583.43,261.96,583.43,264.99z"/>
				<path class="st4" d="M662.59,226.05h17.95v61.79H714v16.32h-51.41V226.05z"/>
				<path class="st4" d="M729.27,226.05h17.95v78.11h-17.95V226.05z"/>
				<path class="st4" d="M764.13,265.1c0-5.52,1.07-10.73,3.21-15.62c2.14-4.9,5.03-9.17,8.68-12.82c3.65-3.65,7.95-6.53,12.88-8.63
					c4.93-2.1,10.2-3.15,15.8-3.15c5.59,0,10.86,1.05,15.79,3.15c4.94,2.1,9.25,4.97,12.94,8.63c3.69,3.65,6.59,7.93,8.68,12.82
					c2.1,4.9,3.15,10.1,3.15,15.62c0,5.6-1.05,10.82-3.15,15.68c-2.1,4.86-4.99,9.11-8.68,12.77c-3.69,3.65-8.01,6.53-12.94,8.63
					c-4.94,2.1-10.2,3.15-15.79,3.15c-5.6,0-10.86-1.05-15.8-3.15c-4.94-2.1-9.23-4.97-12.88-8.63c-3.65-3.65-6.55-7.91-8.68-12.77
					C765.2,275.93,764.13,270.7,764.13,265.1z M783.01,264.99c0,3.11,0.56,6.02,1.69,8.74c1.13,2.72,2.68,5.09,4.66,7.11
					c1.98,2.02,4.27,3.61,6.88,4.78c2.6,1.17,5.42,1.75,8.45,1.75c3.03,0,5.85-0.58,8.45-1.75c2.6-1.17,4.9-2.76,6.88-4.78
					c1.98-2.02,3.54-4.39,4.66-7.11c1.13-2.72,1.69-5.64,1.69-8.74c0-3.03-0.56-5.89-1.69-8.57c-1.13-2.68-2.68-5.03-4.66-7.05
					c-1.98-2.02-4.3-3.61-6.94-4.78c-2.64-1.17-5.44-1.75-8.39-1.75c-2.96,0-5.75,0.58-8.39,1.75c-2.64,1.17-4.95,2.76-6.94,4.78
					c-1.98,2.02-3.54,4.37-4.66,7.05C783.58,259.1,783.01,261.96,783.01,264.99z"/>
			</g>
		</g>
		<g>
			<path class="st4" d="M155.29,341.01c-1.37-0.58-2.45-1.43-3.25-2.53c-0.8-1.1-1.21-2.4-1.23-3.9h5.27
				c0.07,1.01,0.43,1.8,1.07,2.39c0.64,0.59,1.53,0.88,2.65,0.88c1.15,0,2.05-0.28,2.71-0.83c0.65-0.55,0.98-1.27,0.98-2.16
				c0-0.72-0.22-1.32-0.67-1.79c-0.44-0.47-1-0.84-1.67-1.11c-0.67-0.27-1.59-0.57-2.76-0.89c-1.59-0.47-2.89-0.93-3.88-1.39
				c-0.99-0.46-1.85-1.15-2.56-2.07c-0.71-0.93-1.07-2.16-1.07-3.71c0-1.45,0.36-2.72,1.09-3.79c0.73-1.08,1.74-1.9,3.06-2.48
				c1.31-0.57,2.81-0.86,4.5-0.86c2.53,0,4.58,0.62,6.16,1.84c1.58,1.23,2.45,2.95,2.62,5.15h-5.41c-0.05-0.84-0.4-1.54-1.07-2.09
				c-0.67-0.55-1.55-0.83-2.65-0.83c-0.96,0-1.73,0.25-2.3,0.74c-0.57,0.49-0.86,1.21-0.86,2.14c0,0.66,0.22,1.2,0.65,1.63
				c0.43,0.43,0.97,0.78,1.62,1.05c0.64,0.27,1.55,0.58,2.72,0.93c1.59,0.47,2.89,0.94,3.9,1.41c1.01,0.47,1.87,1.17,2.6,2.11
				c0.73,0.94,1.09,2.17,1.09,3.69c0,1.31-0.34,2.53-1.02,3.65c-0.68,1.12-1.68,2.02-2.99,2.69c-1.31,0.67-2.87,1-4.67,1
				C158.2,341.89,156.66,341.6,155.29,341.01z"/>
			<path class="st4" d="M193.17,317.13v24.52h-4.92v-10.43h-10.5v10.43h-4.92v-24.52h4.92v10.08h10.5v-10.08H193.17z"/>
			<path class="st4" d="M203.08,340.28c-1.92-1.08-3.44-2.57-4.57-4.48c-1.12-1.91-1.69-4.07-1.69-6.48c0-2.39,0.56-4.54,1.69-6.45
				c1.12-1.91,2.65-3.4,4.57-4.48c1.92-1.08,4.03-1.62,6.32-1.62c2.32,0,4.43,0.54,6.34,1.62c1.91,1.08,3.42,2.57,4.53,4.48
				c1.11,1.91,1.67,4.06,1.67,6.45c0,2.41-0.56,4.57-1.67,6.48c-1.11,1.91-2.63,3.4-4.55,4.48c-1.92,1.08-4.03,1.62-6.32,1.62
				C207.11,341.89,205,341.35,203.08,340.28z M213.3,336.5c1.12-0.67,2-1.62,2.63-2.86c0.63-1.24,0.95-2.68,0.95-4.32
				s-0.32-3.07-0.95-4.3c-0.63-1.23-1.51-2.17-2.63-2.83c-1.12-0.66-2.42-0.99-3.9-0.99c-1.48,0-2.78,0.33-3.92,0.99
				c-1.14,0.66-2.02,1.6-2.65,2.83c-0.63,1.23-0.95,2.66-0.95,4.3s0.32,3.08,0.95,4.32c0.63,1.24,1.52,2.2,2.65,2.86
				c1.14,0.67,2.44,1,3.92,1C210.88,337.5,212.18,337.17,213.3,336.5z"/>
			<path class="st4" d="M258.37,317.13l-6.85,24.52h-5.79l-4.6-17.46l-4.81,17.46l-5.76,0.03l-6.6-24.55h5.27l4.32,19.04l4.99-19.04
				H244l4.71,18.93l4.36-18.93H258.37z"/>
			<path class="st4" d="M289.42,317.13l-8.29,15.98v8.54h-4.92v-8.54l-8.33-15.98h5.55l5.27,11.21l5.23-11.21H289.42z"/>
			<path class="st4" d="M297.32,340.28c-1.92-1.08-3.44-2.57-4.57-4.48c-1.12-1.91-1.69-4.07-1.69-6.48c0-2.39,0.56-4.54,1.69-6.45
				c1.12-1.91,2.65-3.4,4.57-4.48c1.92-1.08,4.03-1.62,6.32-1.62c2.32,0,4.43,0.54,6.34,1.62c1.91,1.08,3.42,2.57,4.53,4.48
				c1.11,1.91,1.67,4.06,1.67,6.45c0,2.41-0.56,4.57-1.67,6.48c-1.11,1.91-2.63,3.4-4.55,4.48c-1.92,1.08-4.03,1.62-6.32,1.62
				C301.35,341.89,299.24,341.35,297.32,340.28z M307.54,336.5c1.12-0.67,2-1.62,2.63-2.86c0.63-1.24,0.95-2.68,0.95-4.32
				s-0.32-3.07-0.95-4.3s-1.51-2.17-2.63-2.83s-2.42-0.99-3.9-0.99c-1.48,0-2.78,0.33-3.92,0.99s-2.02,1.6-2.65,2.83
				s-0.95,2.66-0.95,4.3s0.32,3.08,0.95,4.32c0.63,1.24,1.52,2.2,2.65,2.86c1.14,0.67,2.44,1,3.92,1
				C305.12,337.5,306.42,337.17,307.54,336.5z"/>
			<path class="st4" d="M324.68,317.13v15.17c0,1.66,0.43,2.93,1.3,3.81c0.87,0.88,2.08,1.32,3.65,1.32c1.59,0,2.82-0.44,3.69-1.32
				c0.87-0.88,1.3-2.15,1.3-3.81v-15.17h4.95v15.14c0,2.08-0.45,3.85-1.35,5.29c-0.9,1.44-2.11,2.52-3.62,3.25
				c-1.51,0.72-3.19,1.09-5.04,1.09c-1.83,0-3.48-0.36-4.97-1.09c-1.49-0.73-2.66-1.81-3.53-3.25c-0.87-1.44-1.3-3.2-1.3-5.29
				v-15.14H324.68z"/>
			<path class="st4" d="M356.96,341.65l-5.41-9.55h-2.32v9.55h-4.92v-24.52h9.2c1.9,0,3.51,0.33,4.85,1c1.33,0.67,2.33,1.57,3,2.71
				c0.67,1.14,1,2.41,1,3.81c0,1.62-0.47,3.07-1.41,4.37c-0.94,1.3-2.33,2.19-4.18,2.69l5.87,9.94H356.96z M349.23,328.4h4.11
				c1.33,0,2.33-0.32,2.98-0.97s0.98-1.54,0.98-2.69c0-1.12-0.33-2-0.98-2.62c-0.66-0.62-1.65-0.93-2.98-0.93h-4.11V328.4z"/>
			<path class="st4" d="M407.96,317.13l-6.85,24.52h-5.79l-4.6-17.46l-4.81,17.46l-5.76,0.03l-6.6-24.55h5.27l4.32,19.04l4.99-19.04
				h5.48l4.71,18.93l4.36-18.93H407.96z"/>
			<path class="st4" d="M416.22,340.28c-1.92-1.08-3.44-2.57-4.57-4.48c-1.12-1.91-1.69-4.07-1.69-6.48c0-2.39,0.56-4.54,1.69-6.45
				c1.12-1.91,2.65-3.4,4.57-4.48c1.92-1.08,4.03-1.62,6.32-1.62c2.32,0,4.43,0.54,6.34,1.62c1.91,1.08,3.42,2.57,4.53,4.48
				c1.11,1.91,1.67,4.06,1.67,6.45c0,2.41-0.56,4.57-1.67,6.48c-1.11,1.91-2.63,3.4-4.55,4.48c-1.92,1.08-4.03,1.62-6.32,1.62
				C420.24,341.89,418.14,341.35,416.22,340.28z M426.44,336.5c1.12-0.67,2-1.62,2.63-2.86c0.63-1.24,0.95-2.68,0.95-4.32
				s-0.32-3.07-0.95-4.3s-1.51-2.17-2.63-2.83c-1.12-0.66-2.42-0.99-3.9-0.99c-1.48,0-2.78,0.33-3.92,0.99
				c-1.14,0.66-2.02,1.6-2.65,2.83c-0.63,1.23-0.95,2.66-0.95,4.3s0.32,3.08,0.95,4.32c0.63,1.24,1.52,2.2,2.65,2.86
				c1.14,0.67,2.44,1,3.92,1C424.02,337.5,425.32,337.17,426.44,336.5z"/>
			<path class="st4" d="M451.38,341.65l-5.41-9.55h-2.32v9.55h-4.92v-24.52h9.2c1.9,0,3.51,0.33,4.85,1c1.33,0.67,2.33,1.57,3,2.71
				c0.67,1.14,1,2.41,1,3.81c0,1.62-0.47,3.07-1.41,4.37c-0.94,1.3-2.33,2.19-4.18,2.69l5.87,9.94H451.38z M443.65,328.4h4.11
				c1.33,0,2.33-0.32,2.98-0.97c0.66-0.64,0.98-1.54,0.98-2.69c0-1.12-0.33-2-0.98-2.62c-0.66-0.62-1.65-0.93-2.98-0.93h-4.11V328.4
				z"/>
			<path class="st4" d="M475.09,341.65l-8.92-10.92v10.92h-4.92v-24.52h4.92v10.99l8.92-10.99h5.93l-10.11,12.15l10.4,12.36H475.09z
				"/>
			<path class="st4" d="M484.52,341.07c-0.57-0.55-0.86-1.23-0.86-2.05c0-0.82,0.29-1.51,0.86-2.06c0.57-0.55,1.31-0.83,2.19-0.83
				c0.87,0,1.58,0.28,2.14,0.83c0.56,0.55,0.84,1.24,0.84,2.06c0,0.82-0.28,1.5-0.84,2.05c-0.56,0.55-1.28,0.83-2.14,0.83
				C485.82,341.89,485.09,341.62,484.52,341.07z"/>
			<path class="st4" d="M507.08,340.28c-1.92-1.08-3.44-2.57-4.57-4.48c-1.12-1.91-1.69-4.07-1.69-6.48c0-2.39,0.56-4.54,1.69-6.45
				c1.12-1.91,2.65-3.4,4.57-4.48c1.92-1.08,4.03-1.62,6.32-1.62c2.32,0,4.43,0.54,6.34,1.62c1.91,1.08,3.42,2.57,4.53,4.48
				c1.11,1.91,1.67,4.06,1.67,6.45c0,2.41-0.56,4.57-1.67,6.48c-1.11,1.91-2.63,3.4-4.55,4.48c-1.92,1.08-4.03,1.62-6.32,1.62
				C511.11,341.89,509.01,341.35,507.08,340.28z M517.31,336.5c1.12-0.67,2-1.62,2.63-2.86c0.63-1.24,0.95-2.68,0.95-4.32
				s-0.32-3.07-0.95-4.3c-0.63-1.23-1.51-2.17-2.63-2.83s-2.42-0.99-3.9-0.99c-1.47,0-2.78,0.33-3.92,0.99
				c-1.14,0.66-2.02,1.6-2.65,2.83c-0.63,1.23-0.95,2.66-0.95,4.3s0.32,3.08,0.95,4.32c0.63,1.24,1.52,2.2,2.65,2.86
				c1.14,0.67,2.44,1,3.92,1C514.88,337.5,516.18,337.17,517.31,336.5z"/>
			<path class="st4" d="M562.37,317.13l-6.85,24.52h-5.79l-4.6-17.46l-4.81,17.46l-5.76,0.03l-6.6-24.55h5.27l4.32,19.04l4.99-19.04
				H548l4.71,18.93l4.36-18.93H562.37z"/>
			<path class="st4" d="M586.54,341.65h-4.92l-11.13-16.82v16.82h-4.92v-24.55h4.92l11.13,16.86v-16.86h4.92V341.65z"/>
			<path class="st4" d="M619.24,317.13l-8.29,15.98v8.54h-4.92v-8.54l-8.33-15.98h5.55l5.27,11.21l5.23-11.21H619.24z"/>
			<path class="st4" d="M627.14,340.28c-1.92-1.08-3.44-2.57-4.57-4.48c-1.12-1.91-1.69-4.07-1.69-6.48c0-2.39,0.56-4.54,1.69-6.45
				c1.12-1.91,2.65-3.4,4.57-4.48c1.92-1.08,4.03-1.62,6.32-1.62c2.32,0,4.43,0.54,6.34,1.62c1.91,1.08,3.42,2.57,4.53,4.48
				c1.11,1.91,1.67,4.06,1.67,6.45c0,2.41-0.56,4.57-1.67,6.48c-1.11,1.91-2.63,3.4-4.55,4.48c-1.92,1.08-4.03,1.62-6.32,1.62
				C631.17,341.89,629.06,341.35,627.14,340.28z M637.36,336.5c1.12-0.67,2-1.62,2.63-2.86c0.63-1.24,0.95-2.68,0.95-4.32
				s-0.32-3.07-0.95-4.3s-1.51-2.17-2.63-2.83s-2.42-0.99-3.9-0.99c-1.48,0-2.78,0.33-3.92,0.99c-1.14,0.66-2.02,1.6-2.65,2.83
				c-0.63,1.23-0.95,2.66-0.95,4.3s0.32,3.08,0.95,4.32c0.63,1.24,1.52,2.2,2.65,2.86c1.14,0.67,2.44,1,3.92,1
				C634.94,337.5,636.24,337.17,637.36,336.5z"/>
			<path class="st4" d="M654.5,317.13v15.17c0,1.66,0.43,2.93,1.3,3.81c0.87,0.88,2.08,1.32,3.65,1.32c1.59,0,2.82-0.44,3.69-1.32
				c0.87-0.88,1.3-2.15,1.3-3.81v-15.17h4.95v15.14c0,2.08-0.45,3.85-1.35,5.29c-0.9,1.44-2.11,2.52-3.62,3.25
				c-1.51,0.72-3.19,1.09-5.04,1.09c-1.83,0-3.48-0.36-4.97-1.09c-1.49-0.73-2.66-1.81-3.53-3.25c-0.87-1.44-1.3-3.2-1.3-5.29
				v-15.14H654.5z"/>
			<path class="st4" d="M686.78,341.65l-5.41-9.55h-2.32v9.55h-4.92v-24.52h9.2c1.9,0,3.51,0.33,4.85,1c1.33,0.67,2.33,1.57,3,2.71
				c0.67,1.14,1,2.41,1,3.81c0,1.62-0.47,3.07-1.41,4.37c-0.94,1.3-2.33,2.19-4.18,2.69l5.87,9.94H686.78z M679.05,328.4h4.11
				c1.33,0,2.33-0.32,2.98-0.97s0.98-1.54,0.98-2.69c0-1.12-0.33-2-0.98-2.62c-0.66-0.62-1.65-0.93-2.98-0.93h-4.11V328.4z"/>
			<path class="st4" d="M709.93,317.13v24.52h-4.92v-24.52H709.93z"/>
			<path class="st4" d="M741.51,317.13v24.52h-4.92V325.7l-6.57,15.95h-3.72l-6.6-15.95v15.95h-4.92v-24.52h5.59l7.8,18.23
				l7.8-18.23H741.51z"/>
			<path class="st4" d="M763.3,328.4c-0.62,1.15-1.59,2.07-2.92,2.77c-1.32,0.7-2.99,1.05-5.01,1.05h-4.11v9.41h-4.92v-24.52h9.03
				c1.9,0,3.51,0.33,4.85,0.98c1.33,0.66,2.33,1.56,3,2.71c0.67,1.15,1,2.45,1,3.9C764.23,326.03,763.92,327.26,763.3,328.4z
				 M758.19,327.33c0.66-0.62,0.98-1.49,0.98-2.62c0-2.39-1.33-3.58-4-3.58h-3.9v7.13h3.9
				C756.53,328.26,757.53,327.95,758.19,327.33z"/>
			<path class="st4" d="M782.74,336.97h-9.76l-1.62,4.67h-5.16l8.82-24.55h5.73l8.82,24.55h-5.2L782.74,336.97z M781.41,333.04
				l-3.55-10.26l-3.55,10.26H781.41z"/>
			<path class="st4" d="M793.3,322.87c1.09-1.91,2.58-3.4,4.46-4.46c1.89-1.06,4-1.6,6.34-1.6c2.74,0,5.14,0.7,7.2,2.11
				c2.06,1.41,3.5,3.35,4.32,5.83h-5.66c-0.56-1.17-1.35-2.05-2.37-2.63c-1.02-0.58-2.19-0.88-3.53-0.88c-1.43,0-2.7,0.33-3.81,1
				c-1.11,0.67-1.98,1.61-2.6,2.83c-0.62,1.22-0.93,2.65-0.93,4.29c0,1.62,0.31,3.04,0.93,4.27c0.62,1.23,1.49,2.18,2.6,2.85
				c1.11,0.67,2.38,1,3.81,1c1.34,0,2.51-0.3,3.53-0.89c1.02-0.6,1.81-1.48,2.37-2.65h5.66c-0.82,2.51-2.25,4.46-4.3,5.85
				c-2.05,1.39-4.45,2.09-7.22,2.09c-2.34,0-4.46-0.53-6.34-1.6c-1.88-1.06-3.37-2.55-4.46-4.44c-1.09-1.9-1.63-4.05-1.63-6.46
				S792.21,324.78,793.3,322.87z"/>
			<path class="st4" d="M836.52,317.13v3.97h-6.53v20.55h-4.92V321.1h-6.53v-3.97H836.52z"/>
			<path class="st4" d="M840.08,341.07c-0.57-0.55-0.86-1.23-0.86-2.05c0-0.82,0.29-1.51,0.86-2.06c0.57-0.55,1.31-0.83,2.19-0.83
				c0.87,0,1.58,0.28,2.14,0.83c0.56,0.55,0.84,1.24,0.84,2.06c0,0.82-0.28,1.5-0.84,2.05c-0.56,0.55-1.28,0.83-2.14,0.83
				C841.39,341.89,840.66,341.62,840.08,341.07z"/>
		</g>
	</g>
</g>
</svg>
